# xmcd
#
# Track frame offsets: 
#        150
#        18176
#        44322
#        67477
#        85101
#        115146
#        140425
#        155009
#        170764
#        194015
#
# Disc length: 2895 seconds
#
# Revision: 0
# Processed by: cddbd v1.5.2PL0 Copyright (c) Steve Scherf et al.
# Submitted via: ExactAudioCopyFreeDBPlugin 1.0
#
DISCID=8f0b4d0a
DTITLE=Rae Gordon Band - Wrong Side Of Love
DYEAR=2019
DGENRE=Blues
TTITLE0=Comin' Back For More
TTITLE1=Don't Look Now
TTITLE2=How You Gonna
TTITLE3=Might As Well Be You
TTITLE4=Sea Of Blue
TTITLE5=Wrong Kind Of Love
TTITLE6=How Much I Love You
TTITLE7=Got To Have You
TTITLE8=Last Call 
TTITLE9=Get Right With The World
EXTD=
EXTT0=
EXTT1=
EXTT2=
EXTT3=
EXTT4=
EXTT5=
EXTT6=
EXTT7=
EXTT8=
EXTT9=
PLAYORDER=
